<svg xmlns="http://www.w3.org/2000/svg" viewBox="0 0 512 512"><g id="Layer_2" data-name="Layer 2"><g id="Layer_1-2" data-name="Layer 1"><path d="M240,0h32c1.28.28,2.56.62,3.85.83,13.14,2,26.47,3.25,39.4,6.2,98.6,22.54,176.16,105.07,192.87,204.84,1.56,9.33,2.6,18.75,3.88,28.13v32c-.28,1.29-.65,2.56-.84,3.87-1.74,11.84-2.84,23.82-5.26,35.52-20.53,99.25-105.39,180.46-205.3,196.66-9.5,1.54-19.06,2.64-28.6,3.95H240c-1.11-.27-2.21-.63-3.34-.8-11.69-1.71-23.48-2.83-35-5.15C102.36,486.18,20.1,400.79,4,301.11c-1.56-9.67-2.68-19.4-4-29.11V240c1.63-11.34,2.86-22.75,5-34C24,104.08,109.14,20.76,211.39,3.94,220.88,2.38,230.46,1.3,240,0ZM102.35,420.93c15.24-48.59,46-82.92,92.6-103.76-28.79-20.18-46.1-47.11-49.63-81.73s7.09-64.88,31.55-89.78c42.71-43.49,112.62-44.36,156.2-2.06,21.79,21.14,33.57,47,34.1,77.45.72,40.79-17,72.34-50,96.19,46.63,20.83,77.35,55.34,92.49,103.77,60-54.25,91.66-147.9,59.29-240.8C437.82,90.77,349.71,28.93,253.93,30,156,31.15,70.65,93.93,40.58,188,11.87,277.72,43.83,368.55,102.35,420.93Zm153.59,61.12c44.59-.39,85.51-12.42,123-36.37,4.08-2.61,4.56-5.11,3.57-9.34-14.94-63.82-71.84-105.53-137.33-100.54-56.51,4.31-104.59,46.53-116,101.72-.75,3.63.11,5.64,3.3,7.69C170.12,469.52,211.34,481.69,255.94,482.05Zm0-339.59a81.36,81.36,0,1,0,81.35,81.35A81.35,81.35,0,0,0,256,142.46Z"/></g></g></svg>