<?xml version="1.0" encoding="utf-8"?>
<!-- Generator: Adobe Illustrator 24.2.0, SVG Export Plug-In . SVG Version: 6.00 Build 0)  -->
<svg version="1.1" id="Layer_1" xmlns="http://www.w3.org/2000/svg" xmlns:xlink="http://www.w3.org/1999/xlink" x="0px" y="0px"
	 viewBox="0 0 1920 1080" style="enable-background:new 0 0 1920 1080;" xml:space="preserve">
<style type="text/css">
	.st0{fill:#FFFFFF;}
</style>
<g>
	<path d="M939,284c14,0,28,0,42,0c8.2,1.2,16.5,2.2,24.6,3.6c96.5,17,176.3,89.7,201.6,184.4c4.1,15.4,5.9,31.3,8.8,47
		c0,14,0,28,0,42c-1.6,10.3-2.4,20.9-4.8,31c-24.3,101.4-86.5,167-186.5,196.1c-14.1,4.1-29.1,5.3-43.6,7.9c-14,0-28,0-42,0
		c-8.2-1.2-16.5-1.9-24.6-3.7C812.9,771,746,710.7,714.1,612.3c-5.3-16.4-6.8-34.2-10.1-51.3c0-14,0-28,0-42
		c1.2-8.4,2.3-16.8,3.7-25.1c16.5-97.7,94.5-180.5,191.6-203C912.3,287.8,925.7,286.2,939,284z M1113.9,703.6
		c57.6-50.7,92.3-146.3,58-240.7c-34.5-94.8-130.9-160.6-241.1-146.5c-101.5,13.1-184.6,94.4-195.2,202.1
		c-5.1,51.4,6.8,99.3,34.6,142.9c9.9,15.5,21.4,29.7,35.8,42.6c15.6-48.3,45.9-82.1,91.7-103c-28.6-20.9-45.7-47.8-49-82.5
		c-3.3-34.9,7.8-65.1,32.5-89.9c40.9-41.1,106.7-43.8,150.8-6.3c22.2,18.8,35.7,42.7,38.9,71.6c5,44.7-12.4,80.1-48.5,107.3
		C1068.2,622.1,1098.5,656,1113.9,703.6z M960.3,620.4c-4.7,0-9.4-0.4-14,0.1c-54,5.8-97.9,44-111.3,96.5c-2.4,9.2-2.4,9.2,5.7,14.2
		c44.7,27.4,93.1,38.5,145.3,32.7c35.1-3.9,67.2-15.8,96.9-34.8c3.3-2.1,4.2-4.3,3.3-8.2C1072.9,661.7,1021.2,620.2,960.3,620.4z
		 M960.3,427.2c-44.8-0.1-80.9,35.7-81,80.3c-0.1,44.8,35.9,81.1,80.2,81.2c44.8,0.1,81.1-35.8,81.3-80.2
		C1040.9,463.3,1005.2,427.3,960.3,427.2z"/>
	<path class="st0" d="M981,796c14.6-2.6,29.5-3.8,43.6-7.9c100.1-29.2,162.3-94.7,186.5-196.1c2.4-10.1,3.3-20.7,4.8-31
		c0,78.3,0,156.7,0,235C1137.7,796,1059.3,796,981,796z"/>
	<path class="st0" d="M704,561c3.3,17.1,4.7,34.8,10.1,51.3c32,98.4,98.8,158.7,200.3,180.1c8.1,1.7,16.4,2.5,24.6,3.7
		c-78.3,0-156.7,0-235,0C704,717.7,704,639.3,704,561z"/>
	<path class="st0" d="M939,284c-13.3,2.2-26.7,3.8-39.8,6.8c-97.1,22.6-175,105.4-191.6,203c-1.4,8.3-2.5,16.8-3.7,25.1
		c0-78.3,0-156.5,0-235C782.3,284,860.7,284,939,284z"/>
	<path class="st0" d="M1216,519c-2.9-15.7-4.7-31.6-8.8-47c-25.3-94.7-105-167.4-201.6-184.4c-8.2-1.4-16.4-2.4-24.6-3.6
		c78.3,0,156.7,0,235,0C1216,362.3,1216,440.7,1216,519z"/>
	<path class="st0" d="M1113.9,703.6c-15.4-47.6-45.6-81.6-91.4-102.5c36.1-27.2,53.5-62.6,48.5-107.3c-3.2-28.8-16.8-52.8-38.9-71.6
		c-44.1-37.5-109.9-34.8-150.8,6.3c-24.7,24.8-35.7,55-32.5,89.9c3.3,34.7,20.4,61.7,49,82.5c-45.8,20.9-76.1,54.7-91.7,103
		c-14.4-12.9-25.9-27.1-35.8-42.6c-27.8-43.7-39.7-91.5-34.6-142.9c10.6-107.6,93.6-189,195.2-202.1
		c110.2-14.2,206.6,51.7,241.1,146.5C1206.2,557.3,1171.4,652.9,1113.9,703.6z"/>
	<path class="st0" d="M960.3,620.4c61-0.3,112.6,41.2,125.8,100.4c0.9,3.9,0,6.1-3.3,8.2c-29.6,19-61.8,30.9-96.9,34.8
		c-52.2,5.8-100.6-5.3-145.3-32.7c-8.1-5-8.1-5-5.7-14.2c13.4-52.5,57.4-90.6,111.3-96.5C950.9,620,955.6,620.4,960.3,620.4z"/>
	<path class="st0" d="M960.3,427.2c44.9,0.1,80.6,36.1,80.5,81.3c-0.1,44.4-36.5,80.3-81.3,80.2c-44.4-0.1-80.3-36.5-80.2-81.2
		C879.3,462.9,915.4,427.1,960.3,427.2z"/>
</g>
</svg>
