<svg xmlns="http://www.w3.org/2000/svg" viewBox="0 0 384 384"><g id="Layer_2" data-name="Layer 2"><g id="Layer_1-2" data-name="Layer 1"><path d="M187.5,0h9a2.48,2.48,0,0,0,.65.37c19.59,5,28.6,16.58,28.6,36.87v121H349.38c12.27,0,22.21,4.86,28.84,15.18,2.7,4.2,3.9,9.35,5.78,14.07v9a5.54,5.54,0,0,0-.49,1c-5,19.22-16.61,28.24-36.39,28.24H225.75v4.76q0,59.43,0,118.87c0,15.23-8.69,27.75-22.45,32.63-2.22.79-4.52,1.33-6.78,2h-9a3,3,0,0,0-.64-.38c-19.73-5.15-28.61-16.59-28.61-36.87v-121h-4.76q-59.43,0-118.87,0c-17.09,0-30.1-10.51-33.93-27.13-.17-.72-.46-1.4-.69-2.1v-9a8.8,8.8,0,0,0,.55-1.36c4.67-18.53,16.7-27.89,35.88-27.89H158.25v-4.94q0-59.37,0-118.74c0-13.5,5.93-23.81,17.71-30.4C179.5,2.21,183.64,1.36,187.5,0Z"/></g></g></svg>