<svg xmlns="http://www.w3.org/2000/svg" viewBox="0 0 383.26 408.84"><g id="Layer_2" data-name="Layer 2"><g id="Layer_1-2" data-name="Layer 1"><path d="M21.57,408.84C13.65,406.58,6.63,402.89,3.13,395a30.88,30.88,0,0,1-3-11.82C-.08,349.79,0,316.4,0,283a16.74,16.74,0,0,1,.19-1.71h50.7v76.16H332.08V281.31h51.18V377.6c0,18.44-4.41,24.83-21.56,31.24Z"/><path d="M153.31,127.79c-16.88,0-33.23,0-49.57,0-7.57,0-12.72-3.87-14-10.46-1-4.88,1.16-8.75,4.27-12.3Q123.84,71,153.64,36.86,167,21.53,180.43,6.22c7.24-8.24,15.13-8.31,22.28-.13Q246,55.47,289.16,104.88c3.1,3.54,5.31,7.37,4.43,12.26-1.2,6.61-6.38,10.61-13.86,10.63-15,.06-30.07,0-45.1,0H230V290.86c0,11.17-4.58,15.78-15.68,15.78q-23.15,0-46.29,0c-9.74,0-14.67-5-14.67-14.79q0-79.41,0-158.81Z"/></g></g></svg>