<svg xmlns="http://www.w3.org/2000/svg" viewBox="0 0 384 384"><g id="Layer_2" data-name="Layer 2"><g id="Layer_1-2" data-name="Layer 1"><path d="M163.5,0c7.73,1.25,15.54,2.17,23.19,3.81C246.92,16.72,294.53,67.35,303.84,128.4c6.74,44.15-3.64,84-30.81,119.4-.38.5-.77,1-1.13,1.5a14.64,14.64,0,0,0-.67,1.62,18.76,18.76,0,0,1,3,2.15q51.21,51.12,102.29,102.38c3,3,5,7,7.44,10.55v6a17.57,17.57,0,0,1-12,12h-6c-3.54-2.46-7.53-4.46-10.54-7.44q-51.33-51-102.38-102.29a23.89,23.89,0,0,1-2.38-3.36l-.2,1.59c-11.42,6.6-22.37,14.25-34.33,19.64C126.79,332.42,24.56,280.64,3.7,186c-1.63-7.4-2.48-15-3.7-22.46v-21c.22-1,.47-1.92.64-2.89,1.53-8.7,2.21-17.66,4.69-26.08Q31.22,25.6,120.45,3.65c7.21-1.77,14.69-2.46,22-3.65ZM30,152.93A123,123,0,1,0,153.09,30,123,123,0,0,0,30,152.93Z"/><path d="M138,168c-19.68,0-38.78,0-57.89,0-8.57,0-15.11-6-15.56-14.09C64,145.11,70.7,138.05,79.77,138c17.86-.09,35.73,0,53.59,0H138V133.8c0-17.37.3-34.74-.11-52.1-.27-11.65,8.19-17.3,15.19-17.2,9.06.12,14.92,6.88,14.92,17.4,0,18.49,0,37,0,56.07H172c18.11,0,36.23,0,54.34,0A14.69,14.69,0,0,1,241,149.65,14.43,14.43,0,0,1,233.49,166a19.85,19.85,0,0,1-8.26,1.85c-17.61.16-35.23.08-52.84.08H168v4.37c0,18,.06,36,0,54A14.77,14.77,0,0,1,156.35,241a14.34,14.34,0,0,1-16.24-7.1,20,20,0,0,1-2-8.58c-.18-17.61-.09-35.23-.09-52.84Z"/></g></g></svg>