<svg xmlns="http://www.w3.org/2000/svg" viewBox="0 0 409.05 363.78"><g id="Layer_2" data-name="Layer 2"><g id="Layer_1-2" data-name="Layer 1"><g id="Layer_2-2" data-name="Layer 2"><g id="Layer_1-2-2" data-name="Layer 1-2"><path d="M409.05,131.72c-1.41,8-2.4,16-4.31,23.87-5.05,20.73-15.19,39-27.85,56-19.54,26.18-43.3,48.31-67.82,69.64q-43.36,37.72-87,75.11c-11.15,9.6-23.14,10-33.89.69-37.79-32.77-75.68-65.44-113-98.72C56,241.2,38.74,222.12,24.68,200.41-.54,161.49-7.38,119.78,8.59,75.94,23,36.3,51.07,10.36,93.16,2.24c43.63-8.41,78.77,7.21,106.68,40.82,1.52,1.83,2.93,3.76,4.79,6.15,1.71-2.18,3.2-4.13,4.75-6,16.18-19.8,35.9-34.29,61.13-40.27,44-10.42,90.69,8,116.09,45.3,12.55,18.45,19.49,38.82,21.73,60.91.15,1.42.48,2.83.72,4.25Z"/></g></g></g></g></svg>