<?xml version="1.0" encoding="utf-8"?>
<!-- Svg Vector Icons : http://www.onlinewebfonts.com/icon -->
<!DOCTYPE svg PUBLIC "-//W3C//DTD SVG 1.1//EN" "http://www.w3.org/Graphics/SVG/1.1/DTD/svg11.dtd">
<svg version="1.1" xmlns="http://www.w3.org/2000/svg" xmlns:xlink="http://www.w3.org/1999/xlink" x="0px" y="0px" viewBox="0 0 1000 1000" enable-background="new 0 0 1000 1000" xml:space="preserve">
<metadata> Svg Vector Icons : http://www.onlinewebfonts.com/icon </metadata>
<g><path d="M900.9,425.9L500,850.4L99.1,425.9c-19.6-20.7-52.2-21.6-72.9-2.1C5.4,443.4,4.5,476,24.1,496.7l438.4,464.2c9.8,10.3,23.3,16.2,37.5,16.2c14.2,0,27.7-5.8,37.5-16.2l438.4-464.2c19.6-20.7,18.6-53.4-2.1-72.9C953.1,404.3,920.5,405.2,900.9,425.9z"/><path d="M900.9,39L500,463.6L99.1,39C79.5,18.3,46.9,17.4,26.2,37C5.4,56.5,4.5,89.2,24.1,109.9l438.4,464.2c9.8,10.3,23.3,16.2,37.5,16.2c14.2,0,27.7-5.8,37.5-16.2l438.4-464.2c19.6-20.7,18.6-53.4-2.1-72.9C953.1,17.4,920.5,18.4,900.9,39z"/></g>
</svg>