<svg xmlns="http://www.w3.org/2000/svg" viewBox="0 0 264.02 240.11"><g id="Layer_2" data-name="Layer 2"><g id="Layer_1-2" data-name="Layer 1"><path d="M132.29,115.17c2.65-2.77,4.93-5.26,7.31-7.64Q190.87,56.23,242.23,5a19.24,19.24,0,0,1,8.2-4.73c4.64-1.23,9.61,1.58,12,5.77a11.94,11.94,0,0,1-1,13.37,34.74,34.74,0,0,1-2.83,3q-58,58.05-116.09,116.09c-7.43,7.44-13.48,7.45-20.86.07Q63.2,80.14,4.74,21.72C1,18-1,13.87.61,8.59a11.88,11.88,0,0,1,18.76-6,35.17,35.17,0,0,1,3.26,3.09L128.92,111.94C129.88,112.9,130.87,113.81,132.29,115.17Z"/><path d="M131.89,212c1.75-2.11,2.63-3.35,3.69-4.41q53.25-53.3,106.6-106.49a19.36,19.36,0,0,1,8.18-4.77C255,95,260,97.83,262.4,102a12,12,0,0,1-.93,13.38,39.59,39.59,0,0,1-3.09,3.26L142.56,234.46c-7.56,7.57-13.5,7.54-21.13-.1Q63.25,176.19,5.15,117.94a19.65,19.65,0,0,1-4.83-8.15c-1.3-4.6,1.46-9.64,5.62-12.09a11.93,11.93,0,0,1,13.37.83,36.67,36.67,0,0,1,3.27,3.09q53.15,53.13,106.27,106.29A40.53,40.53,0,0,1,131.89,212Z"/></g></g></svg>