<svg xmlns="http://www.w3.org/2000/svg" viewBox="0 0 311.91 312.15"><g id="Layer_2" data-name="Layer 2"><g id="Layer_1-2" data-name="Layer 1"><path d="M311.91,58.39c-.3,18.43-6.13,32.81-17.86,44.6C269.1,128.06,244,153,219,178q-55.8,55.82-111.63,111.6a14.34,14.34,0,0,1-6.71,3.66c-28.51,6.32-57.06,12.45-85.6,18.59C5.72,313.84-1.7,306,.34,296.69c6.2-28.28,12.18-56.61,18.42-84.88a15,15,0,0,1,3.72-7.08Q97,130,171.76,55.49c13.61-13.6,26.59-27.93,41.06-40.55C248-15.7,301.84,3.3,310.8,49,311.51,52.67,311.68,56.44,311.91,58.39ZM27.75,284.06a9.69,9.69,0,0,0,1.74,0c19.89-4.25,39.79-8.45,59.64-12.89a13.69,13.69,0,0,0,6.23-3.64Q163.73,199.38,232,131.09a20.79,20.79,0,0,1,3.11-2.21L183.78,77.59a6.43,6.43,0,0,0-.82.67Q113.1,148.1,43.29,218a9,9,0,0,0-2.18,4.15c-2,8.51-3.76,17.06-5.6,25.6C32.93,259.78,30.37,271.82,27.75,284.06Zm224.15-174c8.63-8.36,17.46-16.64,26-25.24,13.61-13.79,13.27-36.63-.49-50.31a36.11,36.11,0,0,0-50.34-.2c-7.84,7.69-15.6,15.47-23.38,23.23-.77.76-1.46,1.61-2,2.2Z"/></g></g></svg>