<svg xmlns="http://www.w3.org/2000/svg" viewBox="0 0 409.05 363.8"><g id="Layer_2" data-name="Layer 2"><g id="Layer_1-2" data-name="Layer 1"><path d="M409.05,131.72c-1.41,8-2.4,16-4.31,23.87-5.05,20.73-15.19,39-27.85,56-19.54,26.18-43.3,48.31-67.82,69.64q-43.36,37.72-87,75.11c-11.15,9.6-23.14,10-33.89.69-37.79-32.77-75.68-65.44-113-98.72-19.19-17.11-36.44-36.19-50.5-57.9C-.54,161.49-7.38,119.78,8.59,75.94,23,36.3,51.07,10.36,93.16,2.24c43.63-8.41,78.77,7.21,106.68,40.82,1.52,1.83,2.93,3.76,4.79,6.15,1.71-2.18,3.2-4.13,4.75-6,16.18-19.8,35.9-34.29,61.13-40.27,44-10.42,90.69,8,116.09,45.3,12.55,18.45,19.49,38.82,21.73,60.91.15,1.42.48,2.83.72,4.25ZM204.57,339.65c1-.77,1.48-1.17,2-1.6,32.61-28.19,65.42-56.15,97.74-84.65,22.28-19.64,43.43-40.46,59.95-65.44,15.79-23.88,23.6-49.86,20-78.63-3.89-31-17.18-56.83-44.74-73.07-25.69-15.13-52.81-17-80.11-3.92-16.14,7.73-28.06,20.36-38,35-.9,1.32-1.73,2.68-2.6,4-7.95,12.2-20,12.12-28.2.18a176.48,176.48,0,0,0-16.12-20.74c-14.91-16-33.24-25.56-55.33-26.65-40.48-2-76,22.83-88.69,61.41C18.44,122.05,24.08,156,45,187.83c13,19.83,29,37.17,46.48,53C118.5,265.22,146.13,289,173.57,313,183.76,321.91,194.1,330.66,204.57,339.65Z"/></g></g></svg>