<svg xmlns="http://www.w3.org/2000/svg" viewBox="0 0 377.83 378.7"><g id="Layer_2" data-name="Layer 2"><g id="Layer_1-2" data-name="Layer 1"><path d="M0,104.58c.55-4.37.86-8.79,1.71-13.1A54.7,54.7,0,0,1,16.32,63.4C26.47,53,36.27,42.19,47.2,32.68,63.85,18.2,81.92,18.28,98,33.3c17,16,33.39,32.76,49.33,49.86,11.84,12.7,11.71,32.19.23,45.26C139,138.11,129.6,147,120.45,156.17c-1.76,1.76-2.1,2.9-.94,5.25,9.15,18.54,22.1,34.29,36.09,49.25A248.54,248.54,0,0,0,203.48,251c5.05,3.22,10.46,5.89,16.07,9,6.89-7,13.43-14,20.44-20.54,5.09-4.75,10.31-9.68,16.31-13.06a32.15,32.15,0,0,1,38.39,4.74C312.15,248,329.37,265.1,346,282.74c12.35,13.11,12.45,33,.52,46.54-10.47,11.91-21.67,23.22-33.06,34.26-8.71,8.44-19.63,12.92-31.7,14.47a18.29,18.29,0,0,0-2.45.69h-14c-.81-.22-1.61-.5-2.44-.65-8-1.46-16.07-2.37-23.88-4.42-27.74-7.27-53-20.17-77.09-35.39Q71.41,281,22.75,185.45C13.63,167.56,6.5,148.84,2.59,129.06,1.33,122.71.84,116.2,0,109.76Zm21.45,3.2c.88,6.19,1.38,12.47,2.71,18.57,5.69,26.12,16.71,50.12,30.64,72.72,37.07,60.17,86.42,107.21,150.12,138.56,19.62,9.65,39.85,17.45,61.93,19.36,13.3,1.15,25.15-1.81,34.74-11.66,8.42-8.64,16.92-17.19,25.31-25.86,9-9.27,9-17,0-26.24-6.62-6.78-13.39-13.42-20.09-20.12-8.1-8.1-16.12-16.27-24.33-24.24-6.67-6.48-14-6.52-21.06-.44-1.21,1-2.35,2.18-3.48,3.31-8.45,8.44-16.85,16.92-25.36,25.3-5.93,5.84-12.52,7.26-19.56,3.76a235.76,235.76,0,0,1-21.3-11.75c-23-14.54-42.74-32.77-60.52-53.2-12.31-14.15-23.54-29.06-31.49-46.2-6.48-14-5.59-18.05,5.56-28.82C113.64,132.71,122,124.54,130,116c6.14-6.52,5.92-13.29.21-20.21-.79-1-1.61-1.87-2.48-2.74Q106.23,71.5,84.67,50a25,25,0,0,0-5.52-4.26c-6.32-3.47-12.77-2-19.29,4.4-8.17,8-16,16.34-24.34,24.23C25.89,83.48,21.29,94.47,21.45,107.78Z"/><path d="M208.3,0c6.76,1.41,12.36,2.34,17.82,3.76q75,19.55,119.17,83.33c16.52,23.79,26.93,50.13,32.24,78.54,1.2,6.47-1.17,11.42-6.33,13.35-4.71,1.76-10.58.07-12.88-4.32a36.36,36.36,0,0,1-2.8-9.09c-13.7-62.06-50-105.7-107.59-131.88-12.8-5.82-26.43-9.18-40.21-11.94-8.48-1.7-12-11.17-6.51-17.28C203.19,2.29,206.36,1.18,208.3,0Z"/><path d="M208.62,69.1c4.65,1.21,11.49,2.4,17.92,4.74,42.22,15.35,69.4,44.7,81.1,88.19.7,2.61,1.25,5.27,1.72,7.93a10.89,10.89,0,0,1-8,12.72,10.62,10.62,0,0,1-12.7-7.4c-1.91-6.21-2.94-12.74-5.3-18.77q-21.1-54-78-66C197.93,89,194,83,196.14,76.51,197.59,72,201.72,69.08,208.62,69.1Z"/></g></g></svg>