<svg xmlns="http://www.w3.org/2000/svg" viewBox="0 0 408.78 408.71"><g id="Layer_2" data-name="Layer 2"><g id="Layer_1-2" data-name="Layer 1"><path d="M240.3,408.71c-4.76-1.79-7.56-5.33-9.75-9.86q-35-72.5-70.31-144.83a13.11,13.11,0,0,0-5.61-5.59Q81.94,212.94,9.11,177.75c-6.62-3.21-9.71-7.67-9-13.13.72-5.66,4.35-8.73,9.43-10.75,23-9.11,45.87-18.34,68.8-27.51q155-62,310-124C399-1.91,402.83-.72,408.78,8.69v5.59c-.75,1.82-1.52,3.64-2.25,5.47Q331.1,208.33,255.71,397c-2.05,5.12-4.51,9.53-9.82,11.76ZM346.07,45.07,41.57,166.88l123,59.65Zm17.16,18.49-.46-.5c-.78.71-1.58,1.4-2.32,2.14q-88.05,88-176.15,176c-2,2-2,3.41-.81,5.74q26.7,54.81,53.25,109.68c1.55,3.19,3.11,6.37,5.08,10.4C282.5,265.36,322.87,164.46,363.23,63.56Z"/></g></g></svg>