<svg xmlns="http://www.w3.org/2000/svg" viewBox="0 0 372.3 384"><g id="Layer_2" data-name="Layer 2"><g id="Layer_1-2" data-name="Layer 1"><path d="M150.15,0h72a8.07,8.07,0,0,0,1.35.6c13.52,3.24,21.84,12.21,24.08,26q1.47,9,3,18.1c2.6,15.13,16.36,23.15,30.85,17.93,6.22-2.24,12.35-4.73,18.58-6.95,14.32-5.09,28.94,0,36.63,13.11q15.94,27.12,31.46,54.49c7.53,13.27,4.73,28.29-6.89,38.25-5.12,4.39-10.45,8.54-15.58,12.92-11.44,9.77-11.44,25.41,0,35.2,4.94,4.22,10.05,8.24,15,12.44,12.35,10.44,15.08,25.38,7.08,39.38q-15.25,26.65-30.72,53.2c-8.09,13.87-22.63,19-37.7,13.47-6.21-2.28-12.34-4.78-18.59-6.94-13.89-4.8-27.6,3.37-30.09,17.83-1.06,6.15-2.06,12.31-3.06,18.47-2.25,13.74-10.57,22.7-24.09,25.94a8.41,8.41,0,0,0-1.34.61h-72a7.68,7.68,0,0,0-1.34-.61c-13.54-3.25-21.85-12.2-24.08-25.94q-1.47-9-3-18.1c-2.58-15.13-16.36-23.16-30.84-17.94-6.33,2.29-12.58,4.84-18.94,7-14.23,4.93-28.67-.25-36.27-13.19Q19.73,288.13,4.2,260.76c-7.54-13.27-4.74-28.3,6.88-38.23,5.12-4.39,10.45-8.55,15.58-12.92,11.44-9.76,11.44-25.48,0-35.21-4.94-4.22-10-8.24-15-12.44C-.71,151.5-3.44,136.59,4.57,122.59q15.26-26.67,30.71-53.2c8.1-13.88,22.63-19,37.7-13.48,6.21,2.28,12.33,4.78,18.58,6.93,13.9,4.8,27.59-3.35,30.11-17.82,1.07-6.15,2.06-12.31,3.06-18.47C127,12.81,135.26,3.86,148.81.6A7.63,7.63,0,0,0,150.15,0ZM30.1,245.7c10.25,17.74,20.39,35.36,30.68,52.9.4.67,2.34,1,3.27.7,5.9-2,11.7-4.34,17.57-6.45A52.36,52.36,0,0,1,151,332.65c1.31,7.06,2.47,14.16,3.68,21.14h63.07c1-6.07,2.06-12,3-17.89,4.78-31.62,33.44-51.89,63.93-44.73,7.84,1.84,15.36,5.16,22.92,8.06,2.54,1,3.62.45,4.93-1.87,6.6-11.75,13.41-23.39,20.15-35.07l9.6-16.6c-5-4.13-9.81-8.11-14.63-12.06-27.34-22.41-27.4-60.78-.13-83.15,4.9-4,9.78-8.07,14.77-12.19-10.26-17.75-20.4-35.24-30.45-52.79-1.08-1.89-2.19-1.41-3.7-.85-6.42,2.42-12.79,5-19.32,7.09a52.32,52.32,0,0,1-67.39-40.18c-1.3-7.1-2.46-14.22-3.71-21.42h-63c-1,6-2.08,11.85-3,17.75-4.75,31.7-33.19,52-63.78,45-7.72-1.77-15.11-5.09-22.57-7.9-2.6-1-4-.88-5.57,1.84-9.22,16.3-18.67,32.47-28,48.69-.54.93-1,1.93-1.46,3l14.91,12.3c26.71,22,26.77,60.48.12,82.45Z"/><path d="M260.2,192.53c-.48,40.84-34,73.93-74.49,73.52-41-.42-74.19-34.18-73.59-74.78.6-40.88,34.21-73.89,74.66-73.31C227.7,118.53,260.67,152,260.2,192.53Zm-30-.5A44.36,44.36,0,0,0,186.37,148c-24.08-.19-44.23,19.85-44.26,44a44.39,44.39,0,0,0,43.82,44.09C210,236.24,230.17,216.18,230.2,192Z"/></g></g></svg>