<svg xmlns="http://www.w3.org/2000/svg" viewBox="0 0 384 321.45"><g id="Layer_2" data-name="Layer 2"><g id="Layer_1-2" data-name="Layer 1"><path d="M384,135.23c-.78,2.85-1.45,5.74-2.37,8.56-2.36,7.28-6.63,13.35-12,18.73-28.29,28.26-56.46,56.64-84.95,84.7a49,49,0,0,1-15.36,10.26c-10,4.11-20.43-.21-24.58-10.18-2.34-5.6-3.24-12-3.64-18.14-.59-9.08-.15-18.22-.15-27.74-2.1,0-4-.1-6,0-54.34,3.46-104,20.34-148.77,51.55a288.5,288.5,0,0,0-62.48,59.46,18.49,18.49,0,0,0-1.58,2.09C17.22,323.35,5.12,324.68,0,313v-16.5c.71-6.3,1.31-12.62,2.15-18.9Q14,188.66,79.08,126.91c37.33-35.5,81.67-57.25,132.46-65.67,9.1-1.51,18.36-2,27.54-3,.49,0,1-.21,1.86-.41,0-6.44-.16-12.91,0-19.37.21-6.72,0-13.6,1.31-20.12C245.82,1.18,261.3-5,276,4.44a52.67,52.67,0,0,1,8.64,7.13Q327.41,54.16,370,96.87c7.19,7.19,11.91,15.62,13.37,25.77A5.65,5.65,0,0,0,384,124ZM24.6,274.77l2,1.07a16.39,16.39,0,0,1,1.81-2.8c61.23-61.32,135-93.22,221.81-94.49,9.05-.13,13.24,4.07,13.25,13.25,0,12.37,0,24.74,0,37.12,0,2,.31,4,.55,6.86,2.31-2.11,3.91-3.47,5.39-4.95q42-42,84.05-84c10.82-10.82,10.87-23.78.05-34.63Q311.4,70,269.19,27.85c-1.47-1.47-3.11-2.78-5.25-4.68-.21,3-.47,5.19-.48,7.39,0,12.25,0,24.5,0,36.75,0,8.86-4.23,13.1-13,13.17-20.6.14-40.94,2.64-60.62,8.69Q73,125.08,33.33,240.8C29.54,251.83,27.47,263.43,24.6,274.77Z"/></g></g></svg>