<svg xmlns="http://www.w3.org/2000/svg" viewBox="0 0 484.5 755.48"><g id="Layer_2" data-name="Layer 2"><g id="Layer_1-2" data-name="Layer 1"><path d="M0,374.48c4-8.6,10.82-11.16,20.15-11.14q188.7.32,377.4.14h7c-2.34-3.32-4.14-6-6-8.56Q286.16,202.22,173.82,49.55C166.87,40.11,168,32,177.38,25c7.08-5.28,14.14-10.57,21.34-15.69C220.66-6.26,247.54-2,263.56,19.66q24.51,33.14,48.85,66.39c1.07,1.45,2.22,2.83,3.54,4.52,3.72-2.7,7.18-5.23,10.66-7.75C348.32,67.13,375,70.71,391.2,92.09q26.66,35.25,52.43,71.18c15.59,21.68,11.09,48.42-10.31,64.51-3.43,2.58-6.89,5.13-10.74,8l22,30c10,13.55,20,27,29.9,40.65,16.42,22.59,12.27,49.32-10,66.06-6.71,5-13.94,9.38-19.26,16.38-2.09,2.75-7.16,3.86-11.07,4.45-4.86.74-9.93.18-15.32.18-1,11.27-1.91,22.18-2.81,33.09q-4.87,59-9.72,118-4.21,51.54-8.4,103.09c-1.91,23.06-3.41,46.19-6.12,69.16-2.35,20-16.79,34.11-36.52,37.84a16.51,16.51,0,0,0-2.3.8H97a16.51,16.51,0,0,0-2.3-.8C75,751,60.65,736.79,58.16,716.83,55.82,698,54.64,679,53.07,660.1,50.23,625.74,47.5,591.36,44.68,557Q39.33,491.5,33.91,426c-.89-10.74-1.84-21.47-2.79-32.41C19.38,392.86,6.24,397,0,382.48Zm388.66,19.27H61.45c.08,1.42.13,2.55.22,3.67Q65.81,448,70,498.5,74.17,550,78.34,601.58C81.22,636.77,84.24,672,87,707.14c1,13.52,5.9,18.34,19.54,18.34H343c14.34,0,19-4.65,20.07-18.84,1.6-22.09,3.51-44.15,5.33-66.23q4.31-52.53,8.67-105.06,3.77-45.56,7.54-91.11C385.94,427.51,387.28,410.78,388.66,393.75Zm47.73-37.92c3.4-2.5,6.6-4.83,9.78-7.18,9.74-7.21,11-15.16,3.89-24.8Q365.88,209.37,281.71,94.9q-21.45-29.16-43-58.27c-4.73-6.37-12.08-8.68-18.5-5.26-5.21,2.78-9.83,6.65-15,10.24ZM404.74,211.56c4.36-3.23,8.33-6,12.07-9,6.87-5.53,8.26-13.73,3.08-20.85q-26.42-36.34-53.19-72.42c-4.63-6.24-12.66-8.08-19.18-4.29-4.81,2.8-9.13,6.45-13.88,9.88Z"/><path d="M120,544.36q0-52.25,0-104.49c0-11.69,9.77-19.14,20-15.41,5.87,2.15,9.07,6.53,9.88,12.66a39.67,39.67,0,0,1,.12,5V646.6c0,1,0,2,0,3-.21,9.28-6.55,15.92-15.12,15.84S120,658.72,120,649.35Q119.94,596.85,120,544.36Z"/><path d="M210,544q0-52,0-104c0-11.73,9.65-19.21,19.86-15.55,6.09,2.18,9.33,6.71,10,13.07a46.26,46.26,0,0,1,.09,5v204c0,12-5.54,19-15,19s-15-7-15-19Z"/><path d="M330,544.73q0,51,0,102a45.65,45.65,0,0,1-.14,5.49,14.95,14.95,0,0,1-29.7,0,45.65,45.65,0,0,1-.14-5.49q0-102.26,0-204.49c0-1.5,0-3,.07-4.49a14.94,14.94,0,0,1,29.84,0c.24,3.82.09,7.66.09,11.5Z"/></g></g></svg>