<svg xmlns="http://www.w3.org/2000/svg" viewBox="0 0 359.51 408.86"><g id="Layer_2" data-name="Layer 2"><g id="Layer_1-2" data-name="Layer 1"><path d="M77.48,408.86c-7.71-1.79-15-4.47-20.76-10.2-7.07-7-10.24-15.67-11-25.39Q40.76,312.63,35.84,252T25.77,130.71c-.29-3.44-.54-6.89-.84-10.89-3.95,0-7.75,0-11.54,0C4.83,119.74.09,115,0,106.43,0,99.38,0,92.33,0,85.27.22,63.52,15.56,48.1,37.3,48c22-.12,43.91,0,65.86,0h4.66c0-3.81,0-7.23,0-10.66C108,15.57,123.39.18,145.15.08q34.53-.16,69.06,0c21.75.1,37.11,15.5,37.32,37.23,0,3.42,0,6.85,0,10.65h4.66c21.95,0,43.91-.11,65.86,0,15.11.1,26.83,6.54,33.38,20.38,2.31,4.89,3.28,10.65,3.73,16.11.62,7.4.21,14.89.14,22.34-.07,8.06-4.9,12.87-12.95,13-3.84,0-7.68,0-11.88,0-.76,8.84-1.52,17.41-2.23,26q-3.93,47.52-7.82,95c-2.52,30.75-5,61.51-7.5,92.26-1.24,15-2.18,30-4,44.89-2,15.94-13.42,27.24-29.17,30.22a11.47,11.47,0,0,0-1.84.64Zm-28.4-288.8c.06,1,.09,1.8.15,2.57q3.33,40.56,6.65,81.11,3.38,41.14,6.71,82.3c2.3,28.09,4.7,56.18,6.9,84.28.84,10.63,4.75,14.58,15.27,14.58H273.93c11.4,0,15.13-3.72,16-15.1,1.28-17.64,2.81-35.26,4.26-52.88q3.45-42,6.92-83.89,3-36.37,6-72.75c1.1-13.34,2.16-26.69,3.25-40.22ZM24,95.58H335.37c0-2.93,0-5.57,0-8.22,0-11.32-4.08-15.45-15.29-15.45H39.16c-1.33,0-2.66,0-4,.06a11.85,11.85,0,0,0-11.1,11.1C23.83,87.17,24,91.28,24,95.58ZM227.58,47.81c0-3.36,0-6.4,0-9.43a32.85,32.85,0,0,0-.09-3.58A11.68,11.68,0,0,0,216,24.1q-36.28-.21-72.56,0A11.41,11.41,0,0,0,132,34.27c-.44,4.42-.09,8.92-.09,13.54Z"/><path d="M119.8,240.65q0,40.52,0,81c0,1.47.06,2.94-.08,4.39a11.93,11.93,0,0,1-23.79-.13c-.12-1.32-.08-2.66-.08-4V158.69c0-1.2,0-2.4.06-3.6a11.94,11.94,0,0,1,23.85.14c.09,1.32,0,2.66,0,4Q119.81,199.93,119.8,240.65Z"/><path d="M167.7,240q0-41.5,0-83c0-9.37,7.7-15.34,15.86-12.42,4.86,1.74,7.45,5.36,8,10.44a35.16,35.16,0,0,1,.07,4q0,81.44,0,162.87c0,9.57-4.41,15.15-12,15.15s-12-5.57-12-15.15Z"/><path d="M239.56,240q0-41.52,0-83c0-9.37,7.7-15.34,15.86-12.42,4.86,1.74,7.45,5.36,8,10.44a35.34,35.34,0,0,1,.07,4q0,81.43,0,162.86c0,9.57-4.42,15.15-12,15.15s-12-5.57-12-15.16Z"/></g></g></svg>