<?xml version="1.0" encoding="utf-8"?>
<!-- Generator: Adobe Illustrator 24.2.0, SVG Export Plug-In . SVG Version: 6.00 Build 0)  -->
<svg version="1.1" id="Layer_1" xmlns="http://www.w3.org/2000/svg" xmlns:xlink="http://www.w3.org/1999/xlink" x="0px" y="0px"
	 viewBox="0 0 1920 1080" style="enable-background:new 0 0 1920 1080;" xml:space="preserve">
<style type="text/css">
	.st0{fill:#FFFFFF;}
</style>
<g>
	<path class="st0" d="M858,744.6c-34.3,0-68.7,0-103,0c0-136.5,0-273.1,0-409.6c136.5,0,273.1,0,409.6,0c0,136.5,0,273.1,0,409.6
		c-34.1,0-68.1,0-102.2,0c0.6-0.2,1.2-0.5,1.8-0.6c15.8-3,27.2-14.3,29.2-30.2c1.9-14.9,2.8-29.9,4-44.9c2.5-30.8,5-61.5,7.5-92.3
		c2.6-31.7,5.2-63.4,7.8-95c0.7-8.6,1.5-17.2,2.2-26c4.2,0,8,0,11.9,0c8.1-0.1,12.9-4.9,13-13c0.1-7.5,0.5-14.9-0.1-22.3
		c-0.5-5.5-1.4-11.2-3.7-16.1c-6.6-13.8-18.3-20.3-33.4-20.4c-22-0.1-43.9,0-65.9,0c-1.4,0-2.9,0-4.7,0c0-3.8,0-7.2,0-10.7
		c-0.2-21.7-15.6-37.1-37.3-37.2c-23-0.1-46-0.1-69.1,0c-21.8,0.1-37.1,15.5-37.3,37.2c0,3.4,0,6.9,0,10.7c-1.8,0-3.2,0-4.7,0
		c-22,0-43.9-0.1-65.9,0c-21.7,0.1-37.1,15.5-37.3,37.3c-0.1,7.1,0,14.1,0,21.2c0.1,8.6,4.8,13.3,13.4,13.4c3.8,0,7.6,0,11.5,0
		c0.3,4,0.6,7.4,0.8,10.9c3.4,40.4,6.8,80.8,10.1,121.3c3.3,40.4,6.6,80.9,9.9,121.3c0.8,9.7,4,18.4,11,25.4
		C843,740.1,850.3,742.8,858,744.6z"/>
	<path d="M858,744.6c-7.7-1.8-15-4.5-20.8-10.2c-7.1-7-10.2-15.7-11-25.4c-3.3-40.4-6.5-80.9-9.9-121.3
		c-3.3-40.4-6.7-80.8-10.1-121.3c-0.3-3.4-0.5-6.9-0.8-10.9c-4,0-7.7,0-11.5,0c-8.6-0.1-13.3-4.8-13.4-13.4c0-7.1-0.1-14.1,0-21.2
		c0.2-21.8,15.5-37.2,37.3-37.3c22-0.1,43.9,0,65.9,0c1.4,0,2.9,0,4.7,0c0-3.8,0-7.2,0-10.7c0.2-21.7,15.6-37.1,37.3-37.2
		c23-0.1,46-0.1,69.1,0c21.8,0.1,37.1,15.5,37.3,37.2c0,3.4,0,6.9,0,10.7c1.8,0,3.2,0,4.7,0c22,0,43.9-0.1,65.9,0
		c15.1,0.1,26.8,6.5,33.4,20.4c2.3,4.9,3.3,10.7,3.7,16.1c0.6,7.4,0.2,14.9,0.1,22.3c-0.1,8.1-4.9,12.9-13,13c-3.8,0.1-7.7,0-11.9,0
		c-0.8,8.8-1.5,17.4-2.2,26c-2.6,31.7-5.2,63.4-7.8,95c-2.5,30.8-5,61.5-7.5,92.3c-1.2,15-2.2,30-4,44.9
		c-2,15.9-13.4,27.2-29.2,30.2c-0.6,0.1-1.2,0.4-1.8,0.6C994.3,744.6,926.1,744.6,858,744.6z M829.6,455.8c0.1,1,0.1,1.8,0.1,2.6
		c2.2,27,4.4,54.1,6.7,81.1c2.2,27.4,4.5,54.9,6.7,82.3c2.3,28.1,4.7,56.2,6.9,84.3c0.8,10.6,4.7,14.6,15.3,14.6
		c63.1,0,126.1,0,189.2,0c11.4,0,15.1-3.7,16-15.1c1.3-17.6,2.8-35.3,4.3-52.9c2.3-28,4.6-55.9,6.9-83.9c2-24.3,4-48.5,6-72.8
		c1.1-13.3,2.2-26.7,3.3-40.2C1003.6,455.8,916.7,455.8,829.6,455.8z M804.6,431.3c104.1,0,207.6,0,311.3,0c0-2.9,0-5.6,0-8.2
		c0-11.3-4.1-15.4-15.3-15.4c-93.6,0-187.3,0-280.9,0c-1.3,0-2.7,0-4,0.1c-6,0.5-10.7,5.1-11.1,11.1
		C804.4,422.9,804.6,427,804.6,431.3z M1008.1,383.6c0-3.4,0-6.4,0-9.4c0-1.2,0-2.4-0.1-3.6c-0.7-6-5.3-10.7-11.5-10.7
		c-24.2-0.1-48.4-0.1-72.6,0c-6,0-10.9,4.4-11.5,10.2c-0.4,4.4-0.1,8.9-0.1,13.5C944.4,383.6,975.9,383.6,1008.1,383.6z"/>
	<path class="st0" d="M829.6,455.8c87.1,0,174,0,261.3,0c-1.1,13.5-2.2,26.9-3.3,40.2c-2,24.3-4,48.5-6,72.8
		c-2.3,28-4.6,55.9-6.9,83.9c-1.4,17.6-3,35.2-4.3,52.9c-0.8,11.4-4.6,15.1-16,15.1c-63.1,0-126.1,0-189.2,0
		c-10.5,0-14.4-4-15.3-14.6c-2.2-28.1-4.6-56.2-6.9-84.3c-2.2-27.4-4.5-54.9-6.7-82.3c-2.2-27-4.4-54.1-6.7-81.1
		C829.7,457.6,829.7,456.8,829.6,455.8z M900.3,576.4c0-27.1,0-54.3,0-81.4c0-1.3,0-2.7,0-4c-0.5-6.6-5.7-11.5-12.1-11.4
		c-6.2,0.1-11.3,4.9-11.8,11.3c-0.1,1.2-0.1,2.4-0.1,3.6c0,54.4,0,108.8,0,163.3c0,1.3,0,2.7,0.1,4c0.6,6.3,5.8,11.1,12,11
		c6.1-0.1,11.1-4.7,11.8-10.9c0.1-1.5,0.1-2.9,0.1-4.4C900.3,630.4,900.3,603.4,900.3,576.4z M948.2,575.7c0,27.3,0,54.6,0,81.8
		c0,9.6,4.4,15.1,12,15.2c7.6,0,12-5.6,12-15.1c0-54.3,0-108.6,0-162.9c0-1.3,0.1-2.7-0.1-4c-0.6-5.1-3.1-8.7-8-10.4
		c-8.2-2.9-15.8,3.1-15.9,12.4C948.2,520.4,948.2,548.1,948.2,575.7z M1020.1,575.7c0,27.3,0,54.6,0,81.8c0,9.6,4.4,15.1,12,15.2
		c7.6,0,12-5.6,12-15.1c0-54.3,0-108.6,0-162.9c0-1.3,0.1-2.7-0.1-4c-0.6-5.1-3.1-8.7-8-10.4c-8.2-2.9-15.8,3.1-15.9,12.4
		C1020.1,520.4,1020.1,548,1020.1,575.7z"/>
	<path class="st0" d="M804.6,431.3c0-4.3-0.2-8.4,0-12.5c0.4-6,5.1-10.6,11.1-11.1c1.3-0.1,2.7-0.1,4-0.1c93.6,0,187.3,0,280.9,0
		c11.2,0,15.3,4.1,15.3,15.4c0,2.6,0,5.3,0,8.2C1012.1,431.3,908.6,431.3,804.6,431.3z"/>
	<path class="st0" d="M1008.1,383.6c-32.2,0-63.8,0-95.7,0c0-4.6-0.4-9.1,0.1-13.5c0.6-5.8,5.5-10.2,11.5-10.2
		c24.2-0.1,48.4-0.1,72.6,0c6.1,0,10.8,4.7,11.5,10.7c0.1,1.2,0.1,2.4,0.1,3.6C1008.1,377.2,1008.1,380.2,1008.1,383.6z"/>
	<path d="M900.3,576.4c0,27,0,54,0,81c0,1.5,0.1,2.9-0.1,4.4c-0.6,6.2-5.7,10.8-11.8,10.9c-6.2,0.1-11.4-4.7-12-11
		c-0.1-1.3-0.1-2.7-0.1-4c0-54.4,0-108.8,0-163.3c0-1.2,0-2.4,0.1-3.6c0.5-6.4,5.6-11.2,11.8-11.3c6.4-0.1,11.6,4.9,12.1,11.4
		c0.1,1.3,0,2.7,0,4C900.3,522.1,900.3,549.3,900.3,576.4z"/>
	<path d="M948.2,575.7c0-27.7,0-55.4,0-83c0-9.4,7.7-15.3,15.9-12.4c4.9,1.7,7.5,5.4,8,10.4c0.1,1.3,0.1,2.7,0.1,4
		c0,54.3,0,108.6,0,162.9c0,9.6-4.4,15.1-12,15.1c-7.6,0-12-5.6-12-15.2C948.2,630.3,948.2,603,948.2,575.7z"/>
	<path d="M1020.1,575.7c0-27.7,0-55.4,0-83c0-9.4,7.7-15.3,15.9-12.4c4.9,1.7,7.5,5.4,8,10.4c0.1,1.3,0.1,2.7,0.1,4
		c0,54.3,0,108.6,0,162.9c0,9.6-4.4,15.1-12,15.1c-7.6,0-12-5.6-12-15.2C1020.1,630.3,1020.1,603,1020.1,575.7z"/>
</g>
</svg>
