<?xml version="1.0" encoding="utf-8"?>
<!-- Generator: Adobe Illustrator 24.2.0, SVG Export Plug-In . SVG Version: 6.00 Build 0)  -->
<svg version="1.1" id="Layer_1" xmlns="http://www.w3.org/2000/svg" xmlns:xlink="http://www.w3.org/1999/xlink" x="0px" y="0px"
	 viewBox="0 0 1920 1080" style="enable-background:new 0 0 1920 1080;" xml:space="preserve">
<style type="text/css">
	.st0{fill:#FFFFFF;}
</style>
<g>
	<path class="st0" d="M1130.3,544.7c0,55.2,0,110.5,0,165.7c-113.8,0-227.6,0-341.3,0c0-113.8,0-227.6,0-341.3
		c113.8,0,227.6,0,341.3,0c0,55.4,0,110.9,0,166.3c-0.2-0.7-0.5-1.4-0.7-2.1c-3.7-17.5-21.1-29.8-38.3-26.9
		c-26.7,4.5-38.1,34.7-21,55.6c13.1,16,38.3,16,51.6,0.2C1126.4,557,1128.7,551,1130.3,544.7z M959.9,574
		c18.8,0,34.1-15.1,34.1-33.9c0-18.8-15.1-34.1-33.9-34.1c-18.8,0-34.1,15.1-34.1,33.9C926,558.7,941.1,573.9,959.9,574z
		 M857.7,539.9c-0.1-18.8-15.3-33.9-34.1-33.9c-18.7,0-34,15.4-34,34.1c0,18.6,15.5,33.9,34.2,33.9
		C842.6,573.9,857.8,558.6,857.7,539.9z"/>
	<path d="M1130.3,544.7c-1.7,6.3-4,12.3-8.3,17.5c-13.3,15.9-38.6,15.9-51.6-0.2c-17.1-21-5.7-51.2,21-55.6
		c17.2-2.9,34.6,9.4,38.3,26.9c0.2,0.7,0.4,1.4,0.7,2.1C1130.3,538.4,1130.3,541.6,1130.3,544.7z"/>
	<path d="M959.9,574c-18.7,0-33.9-15.3-33.9-34.1c0-18.7,15.3-33.9,34.1-33.9c18.7,0,33.9,15.3,33.9,34.1
		C993.9,558.9,978.7,574,959.9,574z"/>
	<path d="M857.7,539.9c0.1,18.7-15.2,34-33.9,34.1c-18.7,0-34.1-15.3-34.2-33.9c0-18.7,15.3-34.1,34-34.1
		C842.4,506,857.7,521.1,857.7,539.9z"/>
</g>
</svg>
