<?xml version="1.0" encoding="utf-8"?>
<!-- Generator: Adobe Illustrator 24.2.0, SVG Export Plug-In . SVG Version: 6.00 Build 0)  -->
<svg version="1.1" id="Layer_1" xmlns="http://www.w3.org/2000/svg" xmlns:xlink="http://www.w3.org/1999/xlink" x="0px" y="0px"
	 viewBox="0 0 384 343.1" style="enable-background:new 0 0 384 343.1;" xml:space="preserve">
<g id="Layer_2_1_">
	<g id="Layer_1-2">
		<g id="Layer_2-2">
			<g id="Layer_1-2-2">
				<path d="M384,97c-3,12.5-6,25-8.9,37.5c-6.3,27.1-12.5,54.2-18.8,81.3c-3.3,14.2-13.9,22.8-28.5,22.8c-46.5,0.1-93,0.1-139.5,0
					c-25.2,0-50.5-0.1-75.7,0c-9.7,0-15.4,6.6-13.6,15.3c0.9,5.2,5.3,9.2,10.6,9.7c1.9,0.2,3.7,0.2,5.6,0.2h221.6
					c5.6,0.2,9.8,3.5,11.2,8.4s-0.7,9.7-5.5,12.8c-0.4,0.3-0.8,0.5-1.5,0.9c4.6,10.5,5.3,21.2,1,32c-2.9,7.4-8,13.7-14.6,18.1
					c-13.5,9-31.1,8.8-44.4-0.4c-15.2-10.8-19.4-25.6-13.6-48.9h-70c7,19.9,3.3,37-14.3,49.3c-13.8,9.6-29,9.6-43,0.3
					c-18-12-21.8-29.3-14.8-49.9c-5.4,0-10.5,0.1-15.5,0C93.1,286,79,273.9,76.2,256.1c-3-19.1,11.1-37.6,30.4-39.8
					c0.8-0.1,1.7-0.2,2.8-0.4c-0.3-1.5-0.5-2.8-0.9-4.1c-16.5-61.3-33-122.5-49.5-183.6c-1.3-5-2.2-5.6-7.3-5.6
					c-12.5,0-25-0.2-37.5,0.1C7.5,22.8,2.5,20.5,0,13.8V8.6C2.3,3.4,5.8,0,11.9,0c14,0.1,28-0.1,42,0.1c13.3,0.2,22.9,7.8,26.5,20.8
					C84.5,35.9,88.6,51,92.5,66c0.7,2.6,1.7,3.6,4.5,3.6c51.1,0.1,102.2,0.3,153.3,0.6c36.6,0.2,73.2,0.3,109.9,0.5
					c11.9,0.1,19.9,6.2,23.1,17.5c0.2,0.5,0.4,0.9,0.6,1.3V97z M157,143.4c-0.1-1.9-0.2-3.3-0.4-4.6c-1.9-14.1-4-28.2-5.6-42.3
					c-0.4-3.6-1.7-4.2-4.8-4.2c-13.5,0-26.9-0.1-40.4-0.2h-6.1c4.1,15.1,8,29.5,11.9,44c2,7.3,2,7.3,9.4,7.3L157,143.4z M245.6,143
					c0.5,0.1,1.1,0.2,1.6,0.3c12.9,0,25.7,0,38.6,0.1c2.5,0,2.8-1.3,3-3.2c1.4-11,2.9-22,4.4-33c0.6-4.6,1.1-9.3,1.7-14.2h-49.3
					L245.6,143z M173.2,92.7c2.2,16.9,4.5,33.7,6.7,50.4h42.7V92.7L173.2,92.7z M311.1,143.3c12.7,0,24.9,0,37.1-0.1
					c1-0.2,1.8-1,2.1-1.9c3.8-15.9,7.5-31.8,11.2-47.8c-0.5-0.1-1.1-0.2-1.6-0.3c-13.2-0.1-26.5-0.1-39.7-0.2c-2.2,0-2.7,1-2.9,2.9
					c-1.4,10.9-2.9,21.8-4.3,32.7C312.3,133.4,311.7,138.1,311.1,143.3L311.1,143.3z M119.9,165.9c0,0.9,0.1,1.7,0.3,2.6
					c3.8,14.1,7.6,28.1,11.4,42.2c1,3.9,3.5,5.5,7.4,5.5h27.5c0.1-0.9,0.1-1.9,0-2.9c-2-15.1-4-30.1-6.1-45.2
					c-0.1-0.9-1.9-2.1-2.9-2.1c-6.7-0.2-13.5-0.1-20.2-0.1H119.9z M245.5,216.1c10.7,0,21,0,31.4-0.1c0.7,0,2-1.4,2.1-2.2
					c2.1-15.1,4.1-30.1,6-45.2c0-0.8,0-1.6-0.1-2.4h-39.4L245.5,216.1z M182.9,166c2.1,16.2,4.2,31.9,6.2,47.6
					c0.3,2.1,1.3,2.6,3.2,2.6c8.5-0.1,17,0,25.5,0h4.6V166H182.9z M301.4,216.1c9.4,0,18.3,0.1,27.1,0c3.3,0,5.1-2.1,5.9-5.3
					c1.5-6.7,3-13.3,4.6-20c1.9-8.1,3.7-16.2,5.6-24.4c-0.4-0.2-0.9-0.4-1.4-0.4c-11,0-22,0-32.9-0.1c-2.4,0-2.5,1.5-2.7,3.1
					c-0.9,7.3-1.9,14.6-2.9,21.9C303.6,199.1,302.5,207.4,301.4,216.1L301.4,216.1z M163,320c9.3,0.1,16.9-7.4,17-16.7c0,0,0,0,0,0
					v-0.1c-0.1-9.3-7.7-16.8-17-16.9c-9.2,0-16.7,7.5-16.8,16.7c-0.2,9.2,7.1,16.8,16.3,17c0,0,0,0,0,0H163z M305.2,320
					c9.2,0.1,16.8-7.3,16.9-16.6c0,0,0,0,0,0v-0.3c0-9.3-7.5-16.8-16.8-16.8c-9.3,0-16.8,7.5-16.8,16.8c0,9.2,7.3,16.6,16.5,16.8
					H305.2z"/>
			</g>
		</g>
	</g>
</g>
</svg>
