<svg xmlns="http://www.w3.org/2000/svg" viewBox="0 0 384 343.01"><g id="Layer_2" data-name="Layer 2"><g id="Layer_1-2" data-name="Layer 1"><path d="M384,97c-3,12.49-6,25-8.92,37.47-6.3,27.11-12.5,54.23-18.8,81.34C353,230,342.37,238.59,327.75,238.61q-69.75.09-139.48,0c-25.25,0-50.49-.08-75.74,0-9.68,0-15.39,6.57-13.63,15.34a11.75,11.75,0,0,0,10.55,9.65,52.59,52.59,0,0,0,5.62.17H333.28c1.13,0,2.25,0,3.38,0,5.57.25,9.83,3.46,11.16,8.38s-.71,9.71-5.53,12.78c-.41.26-.84.5-1.53.9,4.64,10.53,5.28,21.24,1,32a38.44,38.44,0,0,1-14.64,18.07,39.41,39.41,0,0,1-44.41-.42c-15.22-10.77-19.41-25.61-13.64-48.94h-70c7,19.89,3.31,37-14.33,49.27-13.81,9.58-29,9.63-43,.31-18-12-21.76-29.33-14.81-49.86-5.4,0-10.47.07-15.54,0-18.26-.3-32.35-12.4-35.14-30.13-3-19.14,11.1-37.61,30.4-39.79.85-.1,1.7-.23,2.82-.38-.31-1.47-.53-2.79-.88-4.08Q83.89,120,59.14,28.23c-1.33-4.95-2.2-5.63-7.26-5.63-12.5,0-25-.18-37.49.06C7.48,22.78,2.52,20.43,0,13.78V8.53C2.31,3.36,5.82,0,11.92,0c14,.07,28-.13,42,.08,13.31.21,22.9,7.82,26.47,20.75Q86.61,43.4,92.54,66c.69,2.64,1.71,3.57,4.52,3.57q76.66.19,153.34.58,54.93.24,109.85.53c11.86.06,19.87,6.2,23.11,17.51a8,8,0,0,0,.64,1.32ZM157,143.34c-.15-1.92-.2-3.27-.38-4.61-1.89-14.09-4-28.16-5.59-42.28-.41-3.55-1.73-4.17-4.84-4.16-13.47,0-26.95-.11-40.43-.18-1.92,0-3.84,0-6.11,0,4.09,15.12,8,29.54,11.88,44,2,7.28,2,7.28,9.36,7.28Zm88.56-.32a10.39,10.39,0,0,0,1.6.29c12.86,0,25.71,0,38.57.07,2.48,0,2.78-1.29,3-3.22,1.41-11,2.91-22,4.35-33,.61-4.64,1.14-9.3,1.74-14.21H245.55ZM173.16,92.7c2.25,16.92,4.49,33.66,6.72,50.41h42.73V92.7Zm137.91,50.63c12.7,0,24.91,0,37.13-.09a3,3,0,0,0,2.09-1.89c3.79-15.88,7.45-31.78,11.17-47.81a10.59,10.59,0,0,0-1.64-.3c-13.24-.08-26.48-.11-39.72-.24-2.18,0-2.66,1-2.9,2.89-1.36,10.89-2.88,21.77-4.31,32.66C312.26,133.33,311.71,138.12,311.07,143.33ZM119.94,165.84a18,18,0,0,0,.26,2.59c3.78,14.07,7.61,28.13,11.37,42.21,1,3.86,3.53,5.51,7.38,5.5h27.54a25.75,25.75,0,0,0,0-2.85c-2-15.07-3.95-30.15-6.11-45.21-.13-.86-1.89-2.11-2.91-2.14-6.73-.19-13.47-.1-20.21-.1Zm125.51,50.29c10.71,0,21,.05,31.37-.1.73,0,2-1.39,2.09-2.25,2.1-15.07,4.07-30.15,6-45.24a13.88,13.88,0,0,0-.09-2.35H245.45ZM182.94,166c2.13,16.17,4.21,31.87,6.23,47.58.27,2.06,1.26,2.59,3.22,2.57,8.49-.09,17,0,25.47,0h4.65V166Zm118.48,50.08c9.44,0,18.29.07,27.13,0,3.33,0,5.15-2.14,5.86-5.3q2.28-10,4.59-20,2.81-12.18,5.59-24.37a6,6,0,0,0-1.39-.45c-11,0-22,0-32.94-.1-2.4,0-2.49,1.46-2.71,3.13-.94,7.3-1.94,14.59-2.89,21.88C303.59,199.09,302.54,207.36,301.42,216.11ZM163,320a16.87,16.87,0,0,0,17-16.84,17.1,17.1,0,0,0-17-16.87A16.9,16.9,0,0,0,146.19,303,16.64,16.64,0,0,0,163,320Zm142.24,0a16.74,16.74,0,0,0,16.91-16.83,16.84,16.84,0,0,0-33.68-.13A16.71,16.71,0,0,0,305.19,320Z"/></g></g></svg>