<?xml version="1.0" encoding="utf-8"?>
<!-- Generator: Adobe Illustrator 24.2.0, SVG Export Plug-In . SVG Version: 6.00 Build 0)  -->
<svg version="1.1" id="Layer_1" xmlns="http://www.w3.org/2000/svg" xmlns:xlink="http://www.w3.org/1999/xlink" x="0px" y="0px"
	 viewBox="0 0 1920 1080" style="enable-background:new 0 0 1920 1080;" xml:space="preserve">
<style type="text/css">
	.st0{fill:#FFFFFF;}
</style>
<g>
	<path class="st0" d="M1152,465.7c0,88.8,0,177.5,0,266.3c-128,0-256,0-384,0c0-116.5,0-233,0-349.5c2.5,6.6,7.5,9,14.4,8.9
		c12.5-0.2,25-0.1,37.5-0.1c5.1,0,5.9,0.7,7.3,5.6c16.5,61.2,33,122.4,49.5,183.6c0.3,1.3,0.6,2.6,0.9,4.1c-1.1,0.2-2,0.3-2.8,0.4
		c-19.3,2.2-33.4,20.7-30.4,39.8c2.8,17.7,16.9,29.8,35.1,30.1c5.1,0.1,10.1,0,15.5,0c-7,20.5-3.2,37.8,14.8,49.9
		c13.9,9.3,29.2,9.3,43-0.3c17.6-12.2,21.3-29.4,14.3-49.3c23.4,0,46.7,0,70,0c-5.8,23.3-1.6,38.2,13.6,48.9
		c13.1,9.2,31,9.4,44.4,0.4c6.7-4.5,11.7-10.6,14.6-18.1c4.2-10.8,3.6-21.5-1-32c0.7-0.4,1.1-0.6,1.5-0.9c4.8-3.1,6.9-7.8,5.5-12.8
		c-1.3-4.9-5.6-8.1-11.2-8.4c-1.1,0-2.2,0-3.4,0c-72.7,0-145.5,0-218.2,0c-1.9,0-3.8,0-5.6-0.2c-5.5-0.6-9.5-4.3-10.6-9.7
		c-1.8-8.8,4-15.3,13.6-15.3c25.2,0,50.5,0,75.7,0c46.5,0,93,0.1,139.5,0c14.6,0,25.2-8.6,28.5-22.8c6.3-27.1,12.5-54.2,18.8-81.3
		C1146,490.7,1149,478.2,1152,465.7z"/>
	<path d="M1152,465.7c-3,12.5-6,25-8.9,37.5c-6.3,27.1-12.5,54.2-18.8,81.3c-3.3,14.2-13.9,22.8-28.5,22.8c-46.5,0.1-93,0-139.5,0
		c-25.2,0-50.5-0.1-75.7,0c-9.7,0-15.4,6.6-13.6,15.3c1.1,5.3,5.1,9,10.6,9.7c1.9,0.2,3.7,0.2,5.6,0.2c72.7,0,145.5,0,218.2,0
		c1.1,0,2.3,0,3.4,0c5.6,0.2,9.8,3.5,11.2,8.4c1.3,5-0.7,9.7-5.5,12.8c-0.4,0.3-0.8,0.5-1.5,0.9c4.6,10.5,5.3,21.2,1,32
		c-3,7.5-7.9,13.6-14.6,18.1c-13.4,9-31.3,8.8-44.4-0.4c-15.2-10.8-19.4-25.6-13.6-48.9c-23.3,0-46.6,0-70,0
		c7,19.9,3.3,37-14.3,49.3c-13.8,9.6-29,9.6-43,0.3c-18-12.1-21.8-29.3-14.8-49.9c-5.4,0-10.5,0.1-15.5,0
		c-18.3-0.3-32.3-12.4-35.1-30.1c-3-19.1,11.1-37.6,30.4-39.8c0.9-0.1,1.7-0.2,2.8-0.4c-0.3-1.5-0.5-2.8-0.9-4.1
		c-16.5-61.2-33-122.4-49.5-183.6c-1.3-5-2.2-5.6-7.3-5.6c-12.5,0-25-0.2-37.5,0.1c-6.9,0.1-11.9-2.2-14.4-8.9c0-1.8,0-3.5,0-5.3
		c2.3-5.2,5.8-8.5,11.9-8.5c14,0.1,28-0.1,42,0.1c13.3,0.2,22.9,7.8,26.5,20.7c4.2,15,8.2,30.1,12.2,45.2c0.7,2.6,1.7,3.6,4.5,3.6
		c51.1,0.1,102.2,0.4,153.3,0.6c36.6,0.2,73.2,0.3,109.9,0.5c11.9,0.1,19.9,6.2,23.1,17.5c0.1,0.5,0.4,0.9,0.6,1.3
		C1152,460.7,1152,463.2,1152,465.7z M925,512c-0.2-1.9-0.2-3.3-0.4-4.6c-1.9-14.1-4-28.2-5.6-42.3c-0.4-3.5-1.7-4.2-4.8-4.2
		c-13.5,0-27-0.1-40.4-0.2c-1.9,0-3.8,0-6.1,0c4.1,15.1,8,29.5,11.9,44c2,7.3,2,7.3,9.4,7.3C900.7,512,912.6,512,925,512z
		 M1013.6,511.7c0.7,0.1,1.1,0.3,1.6,0.3c12.9,0,25.7,0,38.6,0.1c2.5,0,2.8-1.3,3-3.2c1.4-11,2.9-22,4.3-33
		c0.6-4.6,1.1-9.3,1.7-14.2c-16.7,0-33,0-49.3,0C1013.6,478.5,1013.6,495.1,1013.6,511.7z M941.2,461.4c2.3,16.9,4.5,33.7,6.7,50.4
		c14.5,0,28.5,0,42.7,0c0-16.9,0-33.5,0-50.4C974.1,461.4,957.8,461.4,941.2,461.4z M1079.1,512c12.7,0,24.9,0,37.1-0.1
		c0.7,0,1.9-1.1,2.1-1.9c3.8-15.9,7.4-31.8,11.2-47.8c-0.7-0.1-1.2-0.3-1.6-0.3c-13.2-0.1-26.5-0.1-39.7-0.2c-2.2,0-2.7,1-2.9,2.9
		c-1.4,10.9-2.9,21.8-4.3,32.7C1080.3,502,1079.7,506.8,1079.1,512z M887.9,534.5c0.1,1.1,0.1,1.9,0.3,2.6
		c3.8,14.1,7.6,28.1,11.4,42.2c1,3.9,3.5,5.5,7.4,5.5c6.7,0,13.5,0,20.2,0c2.4,0,4.8,0,7.3,0c0-1.4,0.1-2.1,0-2.8
		c-2-15.1-4-30.2-6.1-45.2c-0.1-0.9-1.9-2.1-2.9-2.1c-6.7-0.2-13.5-0.1-20.2-0.1C899.5,534.5,893.8,534.5,887.9,534.5z
		 M1013.4,584.8c10.7,0,21,0,31.4-0.1c0.7,0,2-1.4,2.1-2.3c2.1-15.1,4.1-30.2,6-45.2c0.1-0.8-0.1-1.6-0.1-2.4c-13.3,0-26.3,0-39.4,0
		C1013.4,551.6,1013.4,567.9,1013.4,584.8z M950.9,534.7c2.1,16.2,4.2,31.9,6.2,47.6c0.3,2.1,1.3,2.6,3.2,2.6c8.5-0.1,17,0,25.5,0
		c1.6,0,3.1,0,4.7,0c0-17.1,0-33.6,0-50.1C977.3,534.7,964.3,534.7,950.9,534.7z M1069.4,584.8c9.4,0,18.3,0.1,27.1,0
		c3.3,0,5.1-2.1,5.9-5.3c1.5-6.7,3.1-13.4,4.6-20c1.9-8.1,3.7-16.2,5.6-24.4c-0.7-0.2-1-0.5-1.4-0.5c-11,0-22,0-32.9-0.1
		c-2.4,0-2.5,1.5-2.7,3.1c-0.9,7.3-1.9,14.6-2.9,21.9C1071.6,567.8,1070.5,576.1,1069.4,584.8z M931,688.7c9.4,0,17-7.5,17-16.8
		c0-9.2-7.8-17-17-16.9c-9.2,0.1-16.6,7.6-16.7,16.8C914.1,681.2,921.5,688.7,931,688.7z M1073.2,688.7c9.4,0,16.9-7.5,16.9-16.8
		c0-9.3-7.7-17-17-16.9c-9.2,0.1-16.6,7.6-16.7,16.8C1056.3,681.1,1063.8,688.6,1073.2,688.7z"/>
	<path class="st0" d="M1152,458.2c-0.2-0.4-0.5-0.9-0.6-1.3c-3.2-11.3-11.3-17.4-23.1-17.5c-36.6-0.2-73.2-0.4-109.9-0.5
		c-51.1-0.2-102.2-0.5-153.3-0.6c-2.8,0-3.8-0.9-4.5-3.6c-3.9-15.1-8-30.1-12.2-45.2c-3.6-12.9-13.2-20.5-26.5-20.7
		c-14-0.2-28,0-42-0.1c-6.1,0-9.6,3.3-11.9,8.5c0-9.7,0-19.5,0-29.2c128,0,256,0,384,0C1152,384.8,1152,421.5,1152,458.2z"/>
	<path class="st0" d="M925,512c-12.4,0-24.3,0-36.1,0c-7.4,0-7.4,0-9.4-7.3c-3.9-14.4-7.8-28.8-11.9-44c2.3,0,4.2,0,6.1,0
		c13.5,0.1,27,0.2,40.4,0.2c3.1,0,4.4,0.6,4.8,4.2c1.6,14.1,3.7,28.2,5.6,42.3C924.8,508.8,924.8,510.1,925,512z"/>
	<path class="st0" d="M1013.6,511.7c0-16.7,0-33.2,0-50.1c16.3,0,32.5,0,49.3,0c-0.6,4.9-1.1,9.6-1.7,14.2c-1.4,11-2.9,22-4.3,33
		c-0.2,1.9-0.5,3.2-3,3.2c-12.9-0.1-25.7-0.1-38.6-0.1C1014.7,512,1014.2,511.8,1013.6,511.7z"/>
	<path class="st0" d="M941.2,461.4c16.7,0,33,0,49.5,0c0,16.9,0,33.5,0,50.4c-14.2,0-28.3,0-42.7,0
		C945.6,495.1,943.4,478.3,941.2,461.4z"/>
	<path class="st0" d="M1079.1,512c0.6-5.2,1.2-10,1.8-14.8c1.4-10.9,2.9-21.8,4.3-32.7c0.2-1.9,0.7-2.9,2.9-2.9
		c13.2,0.1,26.5,0.2,39.7,0.2c0.5,0,0.9,0.2,1.6,0.3c-3.7,16-7.4,31.9-11.2,47.8c-0.2,0.8-1.4,1.9-2.1,1.9
		C1104,512.1,1091.8,512,1079.1,512z"/>
	<path class="st0" d="M887.9,534.5c5.9,0,11.6,0,17.3,0c6.7,0,13.5-0.1,20.2,0.1c1,0,2.8,1.3,2.9,2.1c2.2,15.1,4.1,30.1,6.1,45.2
		c0.1,0.7,0,1.5,0,2.8c-2.5,0-4.9,0-7.3,0c-6.7,0-13.5,0-20.2,0c-3.9,0-6.4-1.6-7.4-5.5c-3.8-14.1-7.6-28.1-11.4-42.2
		C888,536.4,888,535.7,887.9,534.5z"/>
	<path class="st0" d="M1013.4,584.8c0-16.9,0-33.3,0-50c13.1,0,26.1,0,39.4,0c0,0.7,0.2,1.6,0.1,2.4c-2,15.1-3.9,30.2-6,45.2
		c-0.1,0.9-1.4,2.2-2.1,2.3C1034.5,584.9,1024.2,584.8,1013.4,584.8z"/>
	<path class="st0" d="M950.9,534.7c13.4,0,26.3,0,39.6,0c0,16.5,0,33,0,50.1c-1.5,0-3.1,0-4.7,0c-8.5,0-17-0.1-25.5,0
		c-2,0-3-0.5-3.2-2.6C955.2,566.6,953.1,550.9,950.9,534.7z"/>
	<path class="st0" d="M1069.4,584.8c1.1-8.7,2.2-17,3.2-25.3c1-7.3,1.9-14.6,2.9-21.9c0.2-1.7,0.3-3.2,2.7-3.1
		c11,0.1,22,0.1,32.9,0.1c0.3,0,0.7,0.2,1.4,0.5c-1.9,8.1-3.7,16.2-5.6,24.4c-1.5,6.7-3.1,13.4-4.6,20c-0.7,3.2-2.5,5.3-5.9,5.3
		C1087.7,584.9,1078.9,584.8,1069.4,584.8z"/>
	<path class="st0" d="M931,688.7c-9.4,0-16.8-7.5-16.8-16.9c0.1-9.2,7.5-16.7,16.7-16.8c9.2-0.1,17,7.6,17,16.9
		C947.9,681.1,940.3,688.7,931,688.7z"/>
	<path class="st0" d="M1073.2,688.7c-9.4,0-16.9-7.6-16.8-17c0.1-9.2,7.6-16.7,16.7-16.8c9.2-0.1,17,7.6,17,16.9
		C1090.1,681.2,1082.6,688.7,1073.2,688.7z"/>
</g>
</svg>
