<svg xmlns="http://www.w3.org/2000/svg" viewBox="0 0 842.33 270.04"><defs><style>.cls-1{fill:#f7f7f7;}</style></defs><g id="Layer_2" data-name="Layer 2"><g id="Layer_1-2" data-name="Layer 1"><path class="cls-1" d="M513.17,0c.67,1.37,1.8,2.7,1.94,4.13,3.42,35.3,6.71,70.61,10.08,105.91q3.75,39.28,7.61,78.56c.19,1.93.21,3.88.31,5.82H496.4c-1-10.67-2-20.87-3-31.27H470.68c-.84,10.14-1.67,20.2-2.51,30.47H430.22c.84-9,1.62-17.54,2.44-26.12q3.78-39,7.57-78.06,4.18-43.5,8.38-87A19,19,0,0,1,449.17,0ZM481.89,35.07l-.94.11q-3.56,47.75-7.12,95.6h16.28C487.35,98.71,484.62,66.89,481.89,35.07Z"/><path class="cls-1" d="M.17,258c21.08-1.62,42.15-3.47,63.25-4.8,31.08-2,62.16-3.83,93.27-5.24,41.76-1.89,83.53-4,125.32-4.76,60.62-1.17,121.26-2.11,181.89-1.63,59.28.47,118.56,2.49,177.82,4.53,40.93,1.41,81.84,3.79,122.74,6.16,25.92,1.5,51.81,3.8,77.71,5.74,0,3.17-.35,6.38.09,9.49s-1.44,2.46-3.09,2.51a10.05,10.05,0,0,0-2.6-1c-52-3.36-104-7.41-156.08-9.82-56.42-2.61-112.89-4.6-169.35-5.22-70.8-.79-141.63-.29-212.43.41-37.31.37-74.61,2.16-111.9,3.65q-41.44,1.67-82.85,4.24c-32.08,2-64.14,4.39-96.2,6.66A29.82,29.82,0,0,0,3.17,270c-1.66-.05-3.56.66-3.1-2.51S.17,261.17.17,258Z"/><path class="cls-1" d="M141.87,77.24c5.08-22,10.29-44,15.13-66.09.86-3.94,2.44-5.14,6.26-5.07,11.12.18,22.25.06,33.66.06a26.91,26.91,0,0,1-.44,2.78C190,36.09,183.35,63.25,176.93,90.44a17.09,17.09,0,0,0,0,7.76q11.72,47.22,23.69,94.38c.4,1.61.75,3.24,1.3,5.65l-40.42,1.89c-6.52-28.52-13-56.8-19.45-85.07l-.93.06v85.94l-38.69,2.23V9.48L140.5,7.37V77.22Z"/><path class="cls-1" d="M834.17,111.51c0,17.32.19,34.64-.12,52a63.54,63.54,0,0,1-2.47,15.7c-5.2,18.58-19,28.9-38.24,28.77A81.54,81.54,0,0,1,776,206.37c-21.94-4.94-36.22-22.53-36.65-46.91q-.95-54.42,0-108.87c.45-24.82,15.72-39.32,40.54-39.95a73.74,73.74,0,0,1,18.78,2c21.68,5.19,34.53,21.77,35.49,44.93.09,2.16.24,4.33.25,6.49q0,23.73,0,47.45Zm-39-2.52q0-25,0-50c0-7.11-3.41-11.9-8.34-12s-8.63,4.64-8.63,11.71c0,33.49-.08,67,.08,100.48,0,2.81.69,6.2,2.37,8.27s5.28,4.43,7.62,4.06,4.62-3.77,5.71-6.36c1.16-2.74,1.13-6.09,1.15-9.18C795.22,140.32,795.17,124.66,795.17,109Z"/><path class="cls-1" d="M599,2.9l38,1.48v5.76c0,44.47.15,89-.13,133.43A112.16,112.16,0,0,1,634,168.75c-4.06,17.06-15.39,27.12-32.86,28.79a88.89,88.89,0,0,1-25.27-1.27c-18.33-3.62-28-16.28-31.54-33.92a103.83,103.83,0,0,1-2-19.83c-.16-45.64-.09-91.28-.08-136.93,0-1.15.12-2.29.19-3.55h37.89v6.5q0,65.46,0,130.93c0,4.16.35,8.32.66,12.47a18.75,18.75,0,0,0,.85,3.87c1.3,4.42,4.16,6.57,8.89,6.27,4.57-.29,6.49-3.42,7.09-7.15a91.65,91.65,0,0,0,1-14.43q.1-65.48,0-130.94Z"/><path class="cls-1" d="M297.58,118.88V195.3H259.5V2.63c1.35-.13,2.78-.36,4.22-.4,14.48-.39,29-.82,43.45-1.08,27-.48,39.78,9.61,44.58,36.09a124.23,124.23,0,0,1-1.7,53.51c-4.44,17.32-15.93,26.46-33.67,27.26Zm.93-81.57v45.5c9.1.46,13.33-2,14.6-10.39a88.79,88.79,0,0,0,.67-23.64C312.62,39,308.35,36.48,298.51,37.31Z"/><path class="cls-1" d="M9.81,15.79l76.82-5.35V48.11L49.3,50.74V87.92L85,85.7v36.59l-35.69,2.48v43.76l39.93-2.45v37.85L9.81,209.48Z"/><path class="cls-1" d="M668.15,43.27l-22.69-1V4.62L729.7,8.79v37H707.07V201.32l-38.92-1.78Z"/><path class="cls-1" d="M207.26,4.15h36.38V196.66H207.26Z"/><path class="cls-1" d="M364,112.48h56v25.07H364Z"/></g></g></svg>