<?xml version="1.0" encoding="utf-8"?>
<!-- Generator: Adobe Illustrator 24.2.0, SVG Export Plug-In . SVG Version: 6.00 Build 0)  -->
<svg version="1.1" id="Layer_1" xmlns="http://www.w3.org/2000/svg" xmlns:xlink="http://www.w3.org/1999/xlink" x="0px" y="0px"
	 viewBox="0 0 1920 1080" style="enable-background:new 0 0 1920 1080;" xml:space="preserve">
<style type="text/css">
	.st0{fill:#FFFFFF;}
</style>
<g>
	<path class="st0" d="M1007,579.6c0,2.5,0,4.9,0,7.4c-31.7,0-63.4,0-95,0c0-31.7,0-63.4,0-95c31.7,0,63.4,0,95,0
		c0,28.6,0,57.2,0,85.8c-0.4-2.4-1.9-4.1-3.6-5.8c-6.6-6.5-13.1-13.1-19.7-19.7c-0.6-0.6-0.7-1-0.2-1.8c3.8-6.4,5.5-13.4,5.3-20.9
		c-0.2-6.9-2.3-13.3-6-19.1c-3.6-5.6-8.4-10-14.2-13.2c-7.1-3.8-14.6-5.2-22.5-4.3c-8.9,1-16.5,4.8-22.7,11.1
		c-6.6,6.6-10.3,14.7-11,24.1c-0.6,7.6,0.9,14.7,4.6,21.3c4.1,7.3,9.9,12.9,17.6,16.3c10.3,4.7,20.7,4.7,31,0.4
		c2.4-1,4.6-2.4,7.1-3.7c0.1,0.2,0.3,0.5,0.5,0.8c6.8,6.8,13.6,13.6,20.4,20.4c3.3,3.3,7.6,3.5,11,0.6
		C1006,583.1,1006.6,581.4,1007,579.6z"/>
	<path d="M1007,579.6c-0.4,1.8-1.1,3.5-2.5,4.7c-3.4,2.9-7.7,2.7-11-0.6c-6.8-6.8-13.6-13.6-20.4-20.4c-0.3-0.3-0.4-0.6-0.5-0.8
		c-2.5,1.3-4.8,2.7-7.1,3.7c-10.4,4.3-20.8,4.3-31-0.4c-7.7-3.5-13.5-9-17.6-16.3c-3.7-6.6-5.2-13.7-4.6-21.3
		c0.7-9.4,4.4-17.4,11-24.1c6.2-6.3,13.9-10.1,22.7-11.1c7.9-0.9,15.5,0.5,22.5,4.3c5.9,3.2,10.6,7.6,14.2,13.2
		c3.7,5.8,5.7,12.2,6,19.1c0.3,7.5-1.4,14.4-5.3,20.9c-0.4,0.7-0.4,1.1,0.2,1.8c6.6,6.5,13.1,13.1,19.7,19.7
		c1.7,1.7,3.1,3.4,3.6,5.8C1007,578.4,1007,579,1007,579.6z M924.6,531.2c0,14.3,11.7,25.9,25.9,25.9c14.3,0,25.9-11.6,25.9-25.9
		c0-14.5-11.6-25.9-25.9-25.9C936.3,505.2,924.6,516.9,924.6,531.2z"/>
	<path class="st0" d="M924.6,531.2c0-14.3,11.7-25.9,25.9-25.9c14.3,0,25.9,11.4,25.9,25.9c0,14.3-11.6,25.8-25.9,25.9
		C936.3,557.1,924.6,545.4,924.6,531.2z"/>
</g>
</svg>
