<svg xmlns="http://www.w3.org/2000/svg" viewBox="0 0 94.83 93.55"><g id="Layer_2" data-name="Layer 2"><g id="Layer_1-2" data-name="Layer 1"><path d="M94.83,86.78a8.23,8.23,0,0,1-2.49,4.72c-3.36,2.92-7.68,2.71-11-.55Q71.18,80.78,61,70.58a3.8,3.8,0,0,1-.53-.76c-2.54,1.33-4.76,2.7-7.13,3.68a37.38,37.38,0,0,1-31-.41A37.51,37.51,0,0,1,4.73,56.74,37.22,37.22,0,0,1,.12,35.45a37.36,37.36,0,0,1,11-24.05A37.1,37.1,0,0,1,33.82.28,37.44,37.44,0,0,1,56.37,4.53,38.06,38.06,0,0,1,70.6,17.73a37.3,37.3,0,0,1,6,19.08,37.33,37.33,0,0,1-5.27,20.87,1.2,1.2,0,0,0,.22,1.78C78.13,66,84.67,72.6,91.27,79.13c1.68,1.66,3.13,3.41,3.56,5.8ZM12.41,38.33a25.9,25.9,0,1,0,25.91-25.9A25.94,25.94,0,0,0,12.41,38.33Z"/></g></g></svg>